#!OML:ASF H:\IndianDance\Patient Classification 1\Patient 1\Session 1\dancer.ASF
:FULLY-SPECIFIED
:DEGREES
1935
root 31.5068 15.3321 16.1701 727.133 8.99824 718.999
lowerback -4.05938 -0.415854 -0.52201
upperback -5.76586 -0.542146 -0.299374
thorax -3.66274 -0.251602 -0.0208423
lowerneck -13.2163 -10.1628 -5.48819
upperneck 18.3866 -14.2319 6.26227
head 8.76785 -6.50084 1.27495
rclavicle 4.31611e-014 1.47101e-014
rhumerus 3.86151 59.3925 -17.1283
rradius 119.313
rwrist -29.9223
rhand -35.4579 15.0471
rfingers 7.12502
rthumb -8.58666 345.242
lclavicle 4.31611e-014 1.47101e-014
lhumerus 33.4436 -49.4642 -5.42669
lradius 116.423
lwrist 20.5081
lhand -33.5364 -5.2829
lfingers 7.12502
lthumb -6.73205 -695.41
rfemur -24.0039 -1.88271 27.2699
rtibia 33.9707
rfoot -30.2377 -21.033
rtoes 15.5893
lfemur -18.6507 -0.0360895 -21.0287
ltibia 34.4566
lfoot -18.2193 7.03214
ltoes -0.428836
1936
root 31.502 15.3285 16.1836 726.977 10.3263 718.908
lowerback -4.06748 -0.457968 -0.619011
upperback -5.67703 -0.594145 -0.280895
thorax -3.56409 -0.273043 0.0515819
lowerneck -13.0669 -10.3196 -5.63669
upperneck 18.3015 -14.4632 6.47099
head 8.75539 -6.60396 1.34217
rclavicle 2.34317e-014 -2.38542e-015
rhumerus 3.80454 59.4231 -17.2573
rradius 119.295
rwrist -28.4858
rhand -35.4102 16.6768
rfingers 7.12502
rthumb -8.54069 346.869
lclavicle 2.34317e-014 -2.38542e-015
lhumerus 33.0634 -49.5897 -5.33273
lradius 116.6
lwrist 20.3257
lhand -33.823 -6.65196
lfingers 7.12502
lthumb -7.00869 -696.788
rfemur -23.8599 -1.51755 27.2788
rtibia 34.0137
rfoot -29.8966 -20.7214
rtoes 14.8831
lfemur -18.6277 -0.124521 -20.8125
ltibia 34.4954
lfoot -18.2571 6.12134
ltoes -0.906765
1937
root 31.4975 15.325 16.1972 726.831 11.6084 718.811
lowerback -4.08087 -0.499086 -0.702415
upperback -5.59198 -0.644969 -0.259395
thorax -3.46642 -0.294574 0.119383
lowerneck -12.9346 -10.472 -5.78427
upperneck 18.2251 -14.6852 6.66376
head 8.74783 -6.70375 1.40409
rclavicle -1.62506e-014 -1.74931e-014
rhumerus 3.76593 59.4148 -17.384
rradius 119.279
rwrist -27.1284
rhand -35.3273 18.1819
rfingers 7.12502
rthumb -8.46069 348.371
lclavicle -1.62506e-014 -1.74931e-014
lhumerus 32.6492 -49.7009 -5.19937
lradius 116.77
lwrist 20.1119
lhand -34.1372 -7.87211
lfingers 7.12502
lthumb -7.31201 -698.018
rfemur -23.7307 -1.15756 27.3017
rtibia 34.0515
rfoot -29.6069 -20.3949
rtoes 14.3522
lfemur -18.6283 -0.171293 -20.5941
ltibia 34.547
lfoot -18.3099 5.21658
ltoes -1.34274
1938
root 31.4937 15.3215 16.2106 726.694 12.8499 718.709
lowerback -4.09986 -0.542984 -0.765501
upperback -5.51126 -0.699806 -0.236339
thorax -3.37019 -0.319028 0.177232
lowerneck -12.7987 -10.6185 -5.94921
upperneck 18.1379 -14.8964 6.86387
head 8.73803 -6.79942 1.47263
rclavicle 2.57426e-014 -3.97569e-016
rhumerus 3.73284 59.3988 -17.5259
rradius 119.265
rwrist -25.8763
rhand -35.2762 19.6058
rfingers 7.12502
rthumb -8.41131 349.793
lclavicle 2.57426e-014 -3.97569e-016
lhumerus 32.1945 -49.809 -5.02122
lradius 116.933
lwrist 19.8682
lhand -34.5019 -8.89249
lfingers 7.12502
lthumb -7.66407 -699.051
rfemur -23.6156 -0.835807 27.3405
rtibia 34.0819
rfoot -29.3378 -20.1021
rtoes 13.8852
lfemur -18.651 -0.204364 -20.3789
ltibia 34.6102
lfoot -18.3709 4.34788
ltoes -1.69884
1939
root 31.4905 15.3181 16.2238 726.565 14.0441 718.599
lowerback -4.12643 -0.584895 -0.801273
upperback -5.43569 -0.752556 -0.217735
thorax -3.27539 -0.343671 0.215065
lowerneck -12.6394 -10.7601 -6.13401
upperneck 18.0257 -15.1006 7.0858
head 8.71939 -6.89258 1.55364
rclavicle 1.28713e-014 -1.19271e-015
rhumerus 3.71088 59.3744 -17.689
rradius 119.235
rwrist -24.7157
rhand -35.2935 20.9795
rfingers 7.12502
rthumb -8.42805 351.168
lclavicle 1.28713e-014 -1.19271e-015
lhumerus 31.7192 -49.9231 -4.81617
lradius 117.094
lwrist 19.6389
lhand -34.9424 -9.69229
lfingers 7.12502
lthumb -8.08918 -699.867
rfemur -23.5128 -0.557214 27.3962
rtibia 34.1045
rfoot -29.1718 -19.7744
rtoes 13.7859
lfemur -18.6905 -0.239996 -20.1646
ltibia 34.6801
lfoot -18.4418 3.539
ltoes -2.00381
